<svg xmlns="http://www.w3.org/2000/svg" viewBox="0 0 32 32"><path fill="#5c6bc0" d="m13.844 7.536-1.288-1.072A2 2 0 0 0 11.276 6H4a2 2 0 0 0-2 2v16a2 2 0 0 0 2 2h24a2 2 0 0 0 2-2V10a2 2 0 0 0-2-2H15.124a2 2 0 0 1-1.28-.464"/><rect width="10" height="8" x="18" y="13" fill="#c5cae9" rx="1.1"/><rect width="10" height="8" x="16" y="16" fill="#eef2ff" rx="1.1"/><path fill="#7986cb" d="m17.5 23 2.8-3.1 2 2.1 1.3-1.4 2.4 2.4v1h-8.5Z"/><circle cx="23.2" cy="18.2" r="1.1" fill="#ffb74d"/><path fill="#2e7d32" d="M5 18h9a1 1 0 0 1 1 1v7a2 2 0 0 1-2 2H6a2 2 0 0 1-2-2v-7a1 1 0 0 1 1-1Z"/><path fill="#a5d6a7" d="M5 18h9v3H5Z"/><path fill="#1b5e20" d="M8 22h3v2H8Z"/></svg>
